{
    "asset" : {
        "generator" : "Khronos glTF Blender I/O v1.1.46",
        "version" : "2.0"
    },
    "scene" : 0,
    "scenes" : [
        {
            "name" : "Scene",
            "nodes" : [
                6
            ]
        }
    ],
    "nodes" : [
        {
            "mesh" : 0,
            "name" : "Object_5"
        },
        {
            "mesh" : 1,
            "name" : "Object_6"
        },
        {
            "mesh" : 2,
            "name" : "Object_7"
        },
        {
            "children" : [
                0,
                1,
                2
            ],
            "name" : "Cylinder_2",
            "scale" : [
                1.347000002861023,
                1.347000002861023,
                1
            ]
        },
        {
            "children" : [
                3
            ],
            "name" : "GLTF_SceneRootNode",
            "rotation" : [
                0.7071068286895752,
                0,
                0,
                0.7071068286895752
            ]
        },
        {
            "children" : [
                4
            ],
            "name" : "root"
        },
        {
            "children" : [
                5
            ],
            "name" : "RootNode (model correction matrix)"
        }
    ],
    "materials" : [
        {
            "doubleSided" : true,
            "emissiveFactor" : [
                0,
                0,
                0
            ],
            "name" : "Material.001",
            "pbrMetallicRoughness" : {
                "baseColorFactor" : [
                    0.800000011920929,
                    0.3008280098438263,
                    0.006821389775723219,
                    1
                ],
                "metallicFactor" : 0,
                "roughnessFactor" : 0.30000001192092896
            }
        },
        {
            "doubleSided" : true,
            "emissiveFactor" : [
                0,
                0,
                0
            ],
            "name" : "Material.003",
            "pbrMetallicRoughness" : {
                "baseColorFactor" : [
                    0.4964289963245392,
                    0.11882500350475311,
                    0.005772499833256006,
                    1
                ],
                "metallicFactor" : 0,
                "roughnessFactor" : 0.30000001192092896
            }
        },
        {
            "doubleSided" : true,
            "emissiveFactor" : [
                1,
                0.3581570088863373,
                0.01870100013911724
            ],
            "name" : "Material.004",
            "pbrMetallicRoughness" : {
                "baseColorFactor" : [
                    1,
                    1,
                    1,
                    1
                ],
                "metallicFactor" : 1,
                "roughnessFactor" : 1
            }
        }
    ],
    "meshes" : [
        {
            "name" : "Mesh_0",
            "primitives" : [
                {
                    "attributes" : {
                        "POSITION" : 0,
                        "NORMAL" : 1,
                        "TEXCOORD_0" : 2
                    },
                    "indices" : 3,
                    "material" : 0
                }
            ]
        },
        {
            "name" : "Mesh_1",
            "primitives" : [
                {
                    "attributes" : {
                        "POSITION" : 4,
                        "NORMAL" : 5,
                        "TEXCOORD_0" : 6
                    },
                    "indices" : 7,
                    "material" : 1
                }
            ]
        },
        {
            "name" : "Mesh_2",
            "primitives" : [
                {
                    "attributes" : {
                        "POSITION" : 8,
                        "NORMAL" : 9,
                        "TEXCOORD_0" : 10
                    },
                    "indices" : 11,
                    "material" : 2
                }
            ]
        }
    ],
    "accessors" : [
        {
            "bufferView" : 0,
            "componentType" : 5126,
            "count" : 722,
            "max" : [
                1.1434561014175415,
                1.2010000944137573,
                1
            ],
            "min" : [
                -1.143456220626831,
                -1.2009999752044678,
                -1.172566533088684
            ],
            "type" : "VEC3"
        },
        {
            "bufferView" : 1,
            "componentType" : 5126,
            "count" : 722,
            "type" : "VEC3"
        },
        {
            "bufferView" : 2,
            "componentType" : 5126,
            "count" : 722,
            "type" : "VEC2"
        },
        {
            "bufferView" : 3,
            "componentType" : 5123,
            "count" : 1560,
            "type" : "SCALAR"
        },
        {
            "bufferView" : 4,
            "componentType" : 5126,
            "count" : 84,
            "max" : [
                1.1080349683761597,
                1.1645387411117554,
                0.7814004421234131
            ],
            "min" : [
                -1.1080349683761597,
                -1.1645386219024658,
                -0.8587654829025269
            ],
            "type" : "VEC3"
        },
        {
            "bufferView" : 5,
            "componentType" : 5126,
            "count" : 84,
            "type" : "VEC3"
        },
        {
            "bufferView" : 6,
            "componentType" : 5126,
            "count" : 84,
            "type" : "VEC2"
        },
        {
            "bufferView" : 7,
            "componentType" : 5123,
            "count" : 240,
            "type" : "SCALAR"
        },
        {
            "bufferView" : 8,
            "componentType" : 5126,
            "count" : 42,
            "max" : [
                1.0759316682815552,
                1.1313012838363647,
                0.9935334324836731
            ],
            "min" : [
                -1.0759320259094238,
                -1.1313011646270752,
                -1.172566533088684
            ],
            "type" : "VEC3"
        },
        {
            "bufferView" : 9,
            "componentType" : 5126,
            "count" : 42,
            "type" : "VEC3"
        },
        {
            "bufferView" : 10,
            "componentType" : 5126,
            "count" : 42,
            "type" : "VEC2"
        },
        {
            "bufferView" : 11,
            "componentType" : 5123,
            "count" : 120,
            "type" : "SCALAR"
        }
    ],
    "bufferViews" : [
        {
            "buffer" : 0,
            "byteLength" : 8664,
            "byteOffset" : 0
        },
        {
            "buffer" : 0,
            "byteLength" : 8664,
            "byteOffset" : 8664
        },
        {
            "buffer" : 0,
            "byteLength" : 5776,
            "byteOffset" : 17328
        },
        {
            "buffer" : 0,
            "byteLength" : 3120,
            "byteOffset" : 23104
        },
        {
            "buffer" : 0,
            "byteLength" : 1008,
            "byteOffset" : 26224
        },
        {
            "buffer" : 0,
            "byteLength" : 1008,
            "byteOffset" : 27232
        },
        {
            "buffer" : 0,
            "byteLength" : 672,
            "byteOffset" : 28240
        },
        {
            "buffer" : 0,
            "byteLength" : 480,
            "byteOffset" : 28912
        },
        {
            "buffer" : 0,
            "byteLength" : 504,
            "byteOffset" : 29392
        },
        {
            "buffer" : 0,
            "byteLength" : 504,
            "byteOffset" : 29896
        },
        {
            "buffer" : 0,
            "byteLength" : 336,
            "byteOffset" : 30400
        },
        {
            "buffer" : 0,
            "byteLength" : 240,
            "byteOffset" : 30736
        }
    ],
    "buffers" : [
        {
            "byteLength" : 30976,
            "uri" : "data:application/octet-stream;base64,"
        }
    ]
}
