{
  "accessors": [
    {
      "bufferView": 2,
      "componentType": 5126,
      "count": 722,
      "max": [
        1.1434561014175415,
        1.1725665330886841,
        1.2010000944137573
      ],
      "min": [
        -1.1434562206268311,
        -1,
        -1.2009999752044678
      ],
      "type": "VEC3"
    },
    {
      "bufferView": 2,
      "byteOffset": 8664,
      "componentType": 5126,
      "count": 722,
      "max": [
        0.9987981915473938,
        0.99570673704147339,
        0.99787300825119019
      ],
      "min": [
        -0.9987981915473938,
        -0.99572622776031494,
        -0.99787300825119019
      ],
      "type": "VEC3"
    },
    {
      "bufferView": 1,
      "componentType": 5126,
      "count": 722,
      "max": [
        1.000129222869873,
        1
      ],
      "min": [
        -0.00012928346404805779,
        0
      ],
      "type": "VEC2"
    },
    {
      "bufferView": 0,
      "componentType": 5125,
      "count": 1560,
      "max": [
        721
      ],
      "min": [
        0
      ],
      "type": "SCALAR"
    },
    {
      "bufferView": 2,
      "byteOffset": 17328,
      "componentType": 5126,
      "count": 84,
      "max": [
        1.1080349683761597,
        0.85876548290252686,
        1.1645387411117554
      ],
      "min": [
        -1.1080349683761597,
        -0.78140044212341309,
        -1.1645386219024658
      ],
      "type": "VEC3"
    },
    {
      "bufferView": 2,
      "byteOffset": 18336,
      "componentType": 5126,
      "count": 84,
      "max": [
        0.99570399522781372,
        -0.09259381890296936,
        0.99570399522781372
      ],
      "min": [
        -0.99570399522781372,
        -0.09482419490814209,
        -0.99570399522781372
      ],
      "type": "VEC3"
    },
    {
      "bufferView": 1,
      "byteOffset": 5776,
      "componentType": 5126,
      "count": 84,
      "max": [
        1.000129222869873,
        0.86144942045211792
      ],
      "min": [
        -0.00012928346404805779,
        0.084524698555469513
      ],
      "type": "VEC2"
    },
    {
      "bufferView": 0,
      "byteOffset": 6240,
      "componentType": 5125,
      "count": 240,
      "max": [
        83
      ],
      "min": [
        0
      ],
      "type": "SCALAR"
    },
    {
      "bufferView": 2,
      "byteOffset": 19344,
      "componentType": 5126,
      "count": 42,
      "max": [
        1.0759316682815552,
        1.1725665330886841,
        1.1313012838363647
      ],
      "min": [
        -1.0759320259094238,
        -0.9935334324836731,
        -1.1313011646270752
      ],
      "type": "VEC3"
    },
    {
      "bufferView": 2,
      "byteOffset": 19848,
      "componentType": 5126,
      "count": 42,
      "max": [
        0.99572372436523438,
        0.092382453382015228,
        0.99572372436523438
      ],
      "min": [
        -0.99572372436523438,
        0.09238201379776001,
        -0.99572372436523438
      ],
      "type": "VEC3"
    },
    {
      "bufferView": 1,
      "byteOffset": 6448,
      "componentType": 5126,
      "count": 42,
      "max": [
        1,
        1
      ],
      "min": [
        -1.5646219253540039e-07,
        0
      ],
      "type": "VEC2"
    },
    {
      "bufferView": 0,
      "byteOffset": 7200,
      "componentType": 5125,
      "count": 120,
      "max": [
        41
      ],
      "min": [
        0
      ],
      "type": "SCALAR"
    }
  ],
  "asset": {
    "extras": {
      "author": "PatelDev (https://sketchfab.com/PatelDev)",
      "license": "CC-BY-4.0 (http://creativecommons.org/licenses/by/4.0/)",
      "source": "https://sketchfab.com/3d-models/fall-guys-crown-64e55ffd4f864a20a943710c581d194f",
      "title": "Fall Guys Crown"
    },
    "generator": "Sketchfab-9.65.0",
    "version": "2.0"
  },
  "bufferViews": [
    {
      "buffer": 0,
      "byteLength": 7680,
      "byteOffset": 0,
      "name": "floatBufferViews",
      "target": 34963
    },
    {
      "buffer": 0,
      "byteLength": 6784,
      "byteOffset": 7680,
      "byteStride": 8,
      "name": "floatBufferViews",
      "target": 34962
    },
    {
      "buffer": 0,
      "byteLength": 20352,
      "byteOffset": 14464,
      "byteStride": 12,
      "name": "floatBufferViews",
      "target": 34962
    }
  ],
  "buffers": [
    {
      "byteLength": 34816,
      "uri": "scene.bin"
    }
  ],
  "materials": [
    {
      "doubleSided": true,
      "emissiveFactor": [
        0,
        0,
        0
      ],
      "name": "Material.001",
      "pbrMetallicRoughness": {
        "baseColorFactor": [
          0.79999999999999993,
          0.30082799999999998,
          0.0068213899999999975,
          1
        ],
        "metallicFactor": 0,
        "roughnessFactor": 0.30000000000000004
      }
    },
    {
      "doubleSided": true,
      "emissiveFactor": [
        0,
        0,
        0
      ],
      "name": "Material.003",
      "pbrMetallicRoughness": {
        "baseColorFactor": [
          0.49642899999999968,
          0.11882499999999997,
          0.0057724999999999964,
          1
        ],
        "metallicFactor": 0,
        "roughnessFactor": 0.30000000000000004
      }
    },
    {
      "doubleSided": true,
      "emissiveFactor": [
        1,
        0.358157,
        0.018700999999999999
      ],
      "name": "Material.004",
      "pbrMetallicRoughness": {
        "baseColorFactor": [
          1,
          1,
          1,
          1
        ],
        "metallicFactor": 1,
        "roughnessFactor": 1
      }
    }
  ],
  "meshes": [
    {
      "primitives": [
        {
          "attributes": {
            "NORMAL": 1,
            "POSITION": 0,
            "TEXCOORD_0": 2
          },
          "indices": 3,
          "material": 0,
          "mode": 4
        }
      ]
    },
    {
      "primitives": [
        {
          "attributes": {
            "NORMAL": 5,
            "POSITION": 4,
            "TEXCOORD_0": 6
          },
          "indices": 7,
          "material": 1,
          "mode": 4
        }
      ]
    },
    {
      "primitives": [
        {
          "attributes": {
            "NORMAL": 9,
            "POSITION": 8,
            "TEXCOORD_0": 10
          },
          "indices": 11,
          "material": 2,
          "mode": 4
        }
      ]
    }
  ],
  "nodes": [
    {
      "children": [
        1
      ],
      "name": "RootNode (gltf orientation matrix)",
      "rotation": [
        -0.70710678118654746,
        -0,
        -0,
        0.70710678118654757
      ]
    },
    {
      "children": [
        2
      ],
      "name": "RootNode (model correction matrix)"
    },
    {
      "children": [
        3
      ],
      "name": "root"
    },
    {
      "children": [
        4
      ],
      "matrix": [
        1,
        0,
        0,
        0,
        0,
        2.2204460492503131e-16,
        1,
        0,
        0,
        -1,
        2.2204460492503131e-16,
        0,
        0,
        0,
        0,
        1
      ],
      "name": "GLTF_SceneRootNode"
    },
    {
      "children": [
        5,
        6,
        7
      ],
      "matrix": [
        1.3470000028610229,
        0,
        0,
        0,
        0,
        1,
        0,
        0,
        0,
        0,
        1.3470000028610229,
        0,
        0,
        0,
        0,
        1
      ],
      "name": "Cylinder_2"
    },
    {
      "mesh": 0,
      "name": ""
    },
    {
      "mesh": 1,
      "name": ""
    },
    {
      "mesh": 2,
      "name": ""
    }
  ],
  "scene": 0,
  "scenes": [
    {
      "name": "OSG_Scene",
      "nodes": [
        0
      ]
    }
  ]
}

